<?xml version="1.0" encoding="UTF-8"?>
<svg id="Layer_1" data-name="Layer 1" xmlns="http://www.w3.org/2000/svg" viewBox="0 0 2000 493.41">
  <defs>
    <style>
      .cls-1 {
        letter-spacing: -.01em;
      }

      .cls-2 {
        fill: #0f6f93;
      }

      .cls-3 {
        letter-spacing: 0em;
      }

      .cls-4 {
        letter-spacing: 0em;
      }

      .cls-5 {
        fill: #11a9db;
      }

      .cls-6 {
        fill: #88db79;
      }

      .cls-7 {
        letter-spacing: 0em;
      }

      .cls-8 {
        font-family: Calibri-Light, Calibri;
        font-size: 76.43px;
      }

      .cls-9 {
        fill: none;
        stroke: #0f6f93;
        stroke-linecap: round;
        stroke-miterlimit: 10;
        stroke-width: 7px;
      }
    </style>
  </defs>
  <g>
    <g>
      <path class="cls-2" d="M822.04,280.82c0,1.18-.09,2.22-.27,3.13-.18,.91-.48,1.68-.88,2.31-.41,.63-.88,1.11-1.43,1.43-.54,.32-1.13,.48-1.77,.48h-82.34c-1.63,0-3.31-.61-5.03-1.83-1.72-1.22-2.58-3.46-2.58-6.73V120.89c0-3.26,.86-5.5,2.58-6.73,1.72-1.22,3.4-1.83,5.03-1.83h81.12c.63,0,1.22,.16,1.77,.48,.54,.32,1,.79,1.36,1.43,.36,.63,.63,1.43,.82,2.38,.18,.95,.27,2.06,.27,3.33,0,1.18-.09,2.22-.27,3.13-.18,.91-.45,1.65-.82,2.24-.36,.59-.82,1.04-1.36,1.36-.54,.32-1.13,.48-1.77,.48h-72.15v61.83h62.23c.72,0,1.36,.16,1.9,.48,.54,.32,1,.77,1.36,1.36,.36,.59,.63,1.36,.82,2.31,.18,.95,.27,2.06,.27,3.33,0,1.18-.09,2.2-.27,3.06-.18,.86-.45,1.56-.82,2.11-.36,.54-.82,.95-1.36,1.22-.54,.27-1.18,.41-1.9,.41h-62.23v70.12h73.38c.63,0,1.22,.16,1.77,.48,.54,.32,1.02,.77,1.43,1.36,.41,.59,.7,1.36,.88,2.31,.18,.95,.27,2.06,.27,3.33Z"/>
      <path class="cls-2" d="M941.14,285.44c0,.64-.11,1.18-.34,1.63-.23,.45-.64,.82-1.22,1.09-.59,.27-1.34,.48-2.24,.61-.91,.14-2.04,.2-3.4,.2-1.45,0-2.65-.07-3.6-.2-.95-.14-1.72-.34-2.31-.61-.59-.27-1.04-.63-1.36-1.09-.32-.45-.48-1-.48-1.63v-17.66c-6.52,7.07-13.27,12.62-20.25,16.65-6.98,4.03-14.59,6.05-22.83,6.05-8.88,0-16.44-1.72-22.69-5.16-6.25-3.44-11.35-8.11-15.29-14-3.94-5.89-6.82-12.79-8.63-20.72-1.81-7.93-2.72-16.33-2.72-25.21,0-10.42,1.13-19.82,3.4-28.2,2.26-8.38,5.62-15.51,10.06-21.4,4.44-5.89,9.92-10.42,16.44-13.59,6.52-3.17,14.08-4.76,22.69-4.76,7.43,0,14.22,1.65,20.38,4.96,6.16,3.31,12.23,8.18,18.21,14.61V102.95c0-.54,.11-1.04,.34-1.5,.22-.45,.66-.82,1.29-1.09,.63-.27,1.47-.5,2.51-.68,1.04-.18,2.33-.27,3.87-.27,1.63,0,2.97,.09,4.01,.27,1.04,.18,1.86,.41,2.45,.68,.59,.27,1.02,.63,1.29,1.09,.27,.45,.41,.95,.41,1.5v182.49Zm-16.17-88.73c-6.79-8.24-13.34-14.54-19.64-18.89-6.3-4.35-12.89-6.52-19.77-6.52-6.25,0-11.6,1.49-16.03,4.48-4.44,2.99-8.06,6.93-10.87,11.82-2.81,4.89-4.85,10.42-6.11,16.58-1.27,6.16-1.9,12.41-1.9,18.75,0,6.79,.54,13.41,1.63,19.84,1.09,6.43,2.94,12.16,5.57,17.19,2.63,5.03,6.11,9.06,10.46,12.09,4.35,3.04,9.78,4.55,16.31,4.55,3.26,0,6.43-.45,9.51-1.36,3.08-.9,6.25-2.4,9.51-4.48,3.26-2.08,6.63-4.78,10.12-8.08,3.49-3.31,7.22-7.41,11.21-12.3v-53.67Z"/>
      <path class="cls-2" d="M1070.97,285.44c0,.54-.11,1.04-.34,1.5-.23,.45-.66,.82-1.29,1.09-.63,.27-1.45,.5-2.44,.68-1,.18-2.22,.27-3.67,.27-1.63,0-2.94-.09-3.94-.27-1-.18-1.77-.41-2.31-.68s-.93-.63-1.16-1.09c-.23-.45-.34-.95-.34-1.5v-17.39c-7.07,7.88-13.97,13.59-20.72,17.12-6.75,3.53-13.48,5.3-20.18,5.3-8.06,0-14.86-1.36-20.38-4.08-5.53-2.72-9.99-6.41-13.38-11.07-3.4-4.66-5.84-10.08-7.34-16.24-1.49-6.16-2.24-13.59-2.24-22.28v-74.33c0-.54,.11-1.04,.34-1.5,.23-.45,.66-.84,1.29-1.15,.63-.32,1.47-.54,2.51-.68,1.04-.14,2.33-.2,3.87-.2,1.63,0,2.97,.07,4.01,.2,1.04,.14,1.86,.36,2.45,.68,.59,.32,1.02,.7,1.29,1.15,.27,.45,.41,.95,.41,1.5v72.83c0,7.61,.59,13.82,1.77,18.62,1.18,4.8,2.94,8.9,5.3,12.3,2.35,3.4,5.37,6.03,9.04,7.88,3.67,1.86,7.95,2.79,12.84,2.79,6.25,0,12.48-2.22,18.68-6.66,6.2-4.44,12.79-10.96,19.77-19.57v-88.19c0-.54,.11-1.04,.34-1.5,.22-.45,.66-.84,1.29-1.15,.63-.32,1.47-.54,2.52-.68,1.04-.14,2.38-.2,4.01-.2,1.54,0,2.83,.07,3.87,.2,1.04,.14,1.85,.36,2.44,.68,.59,.32,1.02,.7,1.29,1.15,.27,.45,.41,.95,.41,1.5v122.97Z"/>
      <path d="M1205.83,162.74c0,8.15-1.38,15.63-4.15,22.42-2.76,6.79-6.73,12.64-11.89,17.53-5.16,4.89-11.46,8.7-18.89,11.41-7.43,2.72-16.4,4.08-26.91,4.08h-22.83v67.26c0,.54-.14,1.04-.41,1.5-.27,.45-.73,.82-1.36,1.09-.64,.27-1.47,.5-2.51,.68-1.04,.18-2.38,.27-4.01,.27-1.54,0-2.85-.09-3.94-.27-1.09-.18-1.95-.41-2.58-.68-.64-.27-1.09-.63-1.36-1.09-.27-.45-.41-.95-.41-1.5V120.89c0-3.26,.86-5.5,2.58-6.73,1.72-1.22,3.4-1.83,5.03-1.83h35.74c3.53,0,6.98,.16,10.33,.48,3.35,.32,7.27,1,11.75,2.04,4.49,1.04,9.06,2.99,13.72,5.84,4.66,2.85,8.63,6.34,11.89,10.46,3.26,4.12,5.77,8.83,7.54,14.13,1.77,5.3,2.65,11.12,2.65,17.46Zm-17.53,1.5c0-7.61-1.49-14.06-4.48-19.36-2.99-5.3-6.64-9.24-10.94-11.82-4.3-2.58-8.79-4.21-13.45-4.89-4.67-.68-9.08-1.02-13.25-1.02h-25v76.37h23.92c7.7,0,14.13-.97,19.3-2.92,5.16-1.95,9.51-4.64,13.04-8.08,3.53-3.44,6.23-7.59,8.08-12.43,1.86-4.85,2.79-10.12,2.79-15.83Z"/>
      <path d="M1326.53,285.17c0,.64-.11,1.18-.34,1.63-.23,.45-.66,.84-1.29,1.15-.64,.32-1.52,.57-2.65,.75-1.13,.18-2.56,.27-4.28,.27-1.54,0-2.83-.07-3.87-.2-1.04-.14-1.93-.41-2.65-.82-.73-.41-1.31-.95-1.77-1.63-.45-.68-.86-1.56-1.22-2.65l-16.44-42.67c-1.9-4.8-3.94-9.33-6.12-13.59-2.17-4.26-4.8-7.95-7.88-11.07-3.08-3.13-6.79-5.59-11.14-7.41-4.35-1.81-9.56-2.72-15.63-2.72h-18.21v79.22c0,.54-.14,1.04-.41,1.5-.27,.45-.73,.82-1.36,1.09-.64,.27-1.47,.5-2.51,.68-1.04,.18-2.38,.27-4.01,.27-1.54,0-2.85-.09-3.94-.27-1.09-.18-1.95-.41-2.58-.68-.64-.27-1.09-.63-1.36-1.09-.27-.45-.41-.95-.41-1.5V120.89c0-3.26,.86-5.5,2.58-6.73,1.72-1.22,3.4-1.83,5.03-1.83h33.02c4.35,0,7.95,.11,10.8,.34,2.85,.23,5.46,.52,7.81,.88,6.7,1.18,12.55,3.08,17.53,5.71,4.98,2.63,9.1,5.87,12.37,9.72,3.26,3.85,5.68,8.2,7.27,13.04,1.58,4.85,2.38,10.08,2.38,15.69s-.82,10.99-2.45,15.56c-1.63,4.58-3.94,8.61-6.93,12.09-2.99,3.49-6.57,6.5-10.73,9.04-4.17,2.54-8.74,4.67-13.72,6.39,2.99,1.36,5.68,3.04,8.08,5.03,2.4,1.99,4.62,4.39,6.66,7.2,2.04,2.81,3.96,6.05,5.77,9.72,1.81,3.67,3.62,7.77,5.44,12.3l16.44,41.04c1.18,3.17,1.92,5.35,2.24,6.52,.32,1.18,.48,2.04,.48,2.58Zm-29.22-125.69c0-7.52-1.68-13.88-5.03-19.09-3.35-5.21-8.97-8.94-16.85-11.21-2.63-.72-5.48-1.24-8.56-1.56-3.08-.32-7.11-.48-12.09-.48h-21.74v64.54h25.27c6.79,0,12.64-.84,17.53-2.51,4.89-1.67,8.94-3.96,12.16-6.86,3.21-2.9,5.57-6.3,7.07-10.19,1.5-3.89,2.24-8.11,2.24-12.64Z"/>
      <path d="M1476.32,198.21c0,14.04-1.61,26.75-4.82,38.11-3.22,11.37-8.04,21.06-14.47,29.08-6.43,8.02-14.54,14.2-24.32,18.55-9.78,4.35-21.2,6.52-34.24,6.52s-24.25-2.06-33.63-6.18-17.08-10.01-23.1-17.66c-6.03-7.65-10.46-17.01-13.32-28.06-2.85-11.05-4.28-23.51-4.28-37.37s1.58-26.27,4.76-37.5c3.17-11.23,7.99-20.81,14.47-28.74,6.48-7.93,14.58-14.06,24.32-18.41,9.74-4.35,21.17-6.52,34.31-6.52s23.82,2.04,33.16,6.11c9.33,4.08,17.05,9.92,23.17,17.53,6.11,7.61,10.64,16.85,13.59,27.72,2.94,10.87,4.42,23.15,4.42,36.82Zm-17.66,1.49c0-10.42-.97-20.18-2.92-29.28-1.95-9.1-5.16-17.03-9.65-23.78-4.48-6.75-10.44-12.05-17.87-15.9-7.43-3.85-16.62-5.77-27.58-5.77s-20.04,2.02-27.52,6.05c-7.47,4.03-13.54,9.44-18.21,16.24-4.67,6.79-8.02,14.72-10.05,23.78-2.04,9.06-3.06,18.62-3.06,28.67,0,10.69,.93,20.63,2.79,29.83,1.86,9.2,5.01,17.19,9.44,23.98,4.44,6.79,10.37,12.12,17.8,15.97,7.43,3.85,16.71,5.77,27.86,5.77s20.34-2.06,27.86-6.18c7.52-4.12,13.59-9.65,18.21-16.58,4.62-6.93,7.93-14.95,9.92-24.05,1.99-9.1,2.99-18.68,2.99-28.74Z"/>
      <path d="M1500.47,245c.39-4.87,.77-9.74,1.16-14.61V114.69c0-.49,.14-.94,.41-1.34,.27-.41,.72-.73,1.36-.98,.63-.24,1.5-.45,2.58-.61,1.09-.16,2.4-.24,3.94-.24s2.85,.08,3.94,.24c1.09,.16,1.95,.37,2.58,.61,.63,.24,1.09,.57,1.36,.98,.27,.41,.41,.86,.41,1.34v118.14c-.57,5.38-1.13,10.76-1.7,16.14-1,9.49-4.42,16.54-5.29,18.64-7.7,18.66-34.95,33.21-40.94,36.25-.47,.24-1,.38-1.55,.36-3.1-.14-5.91-1.67-7.35-4.06-1.28-2.13-1.07-4.27-.73-5.59,.2-.76,.74-1.41,1.5-1.79,6.33-3.17,24.97-13.4,32.71-29.67,1.63-3.43,4.96-9.96,5.6-18.12Z"/>
      <path d="M1636.47,280.82c0,1.18-.09,2.22-.27,3.13-.18,.91-.48,1.68-.88,2.31-.41,.63-.88,1.11-1.43,1.43-.54,.32-1.13,.48-1.77,.48h-82.35c-1.63,0-3.31-.61-5.03-1.83-1.72-1.22-2.58-3.46-2.58-6.73V120.89c0-3.26,.86-5.5,2.58-6.73,1.72-1.22,3.4-1.83,5.03-1.83h81.12c.63,0,1.22,.16,1.77,.48,.54,.32,1,.79,1.36,1.43,.36,.63,.63,1.43,.82,2.38,.18,.95,.27,2.06,.27,3.33,0,1.18-.09,2.22-.27,3.13-.18,.91-.45,1.65-.82,2.24-.36,.59-.81,1.04-1.36,1.36-.54,.32-1.13,.48-1.77,.48h-72.15v61.83h62.23c.72,0,1.36,.16,1.9,.48,.54,.32,1,.77,1.36,1.36,.36,.59,.63,1.36,.82,2.31,.18,.95,.27,2.06,.27,3.33,0,1.18-.09,2.2-.27,3.06-.18,.86-.45,1.56-.82,2.11-.36,.54-.82,.95-1.36,1.22-.54,.27-1.18,.41-1.9,.41h-62.23v70.12h73.38c.63,0,1.22,.16,1.77,.48,.54,.32,1.02,.77,1.43,1.36,.41,.59,.7,1.36,.88,2.31,.18,.95,.27,2.06,.27,3.33Z"/>
      <path d="M1767.24,264.24c0,1-.05,1.9-.14,2.72-.09,.82-.23,1.54-.41,2.17-.18,.64-.43,1.22-.75,1.77-.32,.54-.91,1.25-1.77,2.11s-2.74,2.27-5.64,4.21c-2.9,1.95-6.55,3.87-10.94,5.77-4.4,1.9-9.44,3.53-15.15,4.89-5.71,1.36-12,2.04-18.89,2.04-11.05,0-21.06-1.92-30.03-5.77-8.97-3.85-16.6-9.49-22.9-16.92-6.3-7.43-11.14-16.58-14.54-27.45-3.4-10.87-5.09-23.28-5.09-37.23s1.81-27.15,5.43-38.52c3.62-11.37,8.72-21.01,15.29-28.94,6.57-7.93,14.45-14,23.64-18.21,9.19-4.21,19.36-6.32,30.51-6.32,5.25,0,10.35,.5,15.29,1.49,4.94,1,9.49,2.27,13.66,3.81,4.17,1.54,7.9,3.31,11.21,5.3,3.31,1.99,5.57,3.6,6.79,4.82,1.22,1.22,1.99,2.11,2.31,2.65,.32,.54,.56,1.16,.75,1.83,.18,.68,.32,1.45,.41,2.31,.09,.86,.14,1.83,.14,2.92,0,1.27-.07,2.38-.2,3.33-.14,.95-.36,1.77-.68,2.45-.32,.68-.7,1.2-1.16,1.56-.45,.36-1,.54-1.63,.54-1.27,0-3.06-.93-5.37-2.79-2.31-1.86-5.35-3.92-9.1-6.18-3.76-2.26-8.36-4.32-13.79-6.18-5.43-1.86-11.91-2.79-19.43-2.79-8.24,0-15.81,1.65-22.69,4.96-6.89,3.31-12.8,8.18-17.73,14.61-4.94,6.43-8.79,14.36-11.55,23.78-2.76,9.42-4.14,20.25-4.14,32.48s1.27,22.06,3.8,31.12c2.54,9.06,6.2,16.69,11.01,22.9,4.8,6.21,10.73,10.94,17.8,14.2,7.07,3.26,15.08,4.89,24.05,4.89,7.34,0,13.75-.93,19.23-2.79,5.48-1.86,10.17-3.92,14.06-6.18,3.89-2.26,7.09-4.32,9.58-6.18,2.49-1.86,4.42-2.79,5.78-2.79,.54,0,1,.11,1.36,.34,.36,.23,.66,.64,.88,1.22,.23,.59,.41,1.38,.54,2.38,.14,1,.2,2.22,.2,3.67Z"/>
      <path d="M1899.11,119.94c0,1.18-.09,2.22-.27,3.13-.18,.91-.45,1.65-.81,2.24-.36,.59-.82,1.04-1.36,1.36-.54,.32-1.13,.48-1.77,.48h-52.45v158.3c0,.54-.14,1.04-.41,1.5-.27,.45-.73,.82-1.36,1.09-.63,.27-1.49,.5-2.58,.68-1.09,.18-2.4,.27-3.94,.27s-2.85-.09-3.94-.27c-1.09-.18-1.95-.41-2.58-.68-.64-.27-1.09-.63-1.36-1.09-.27-.45-.41-.95-.41-1.5V127.14h-52.45c-.73,0-1.34-.16-1.83-.48-.5-.32-.93-.77-1.29-1.36-.36-.59-.63-1.34-.81-2.24-.18-.9-.27-1.95-.27-3.13,0-1.27,.09-2.38,.27-3.33,.18-.95,.45-1.74,.81-2.38,.36-.63,.79-1.11,1.29-1.43,.5-.32,1.11-.48,1.83-.48h121.48c.63,0,1.22,.16,1.77,.48,.54,.32,1,.79,1.36,1.43,.36,.63,.63,1.43,.81,2.38,.18,.95,.27,2.06,.27,3.33Z"/>
      <path d="M2000,240.6c0,7.79-1.41,14.77-4.21,20.93-2.81,6.16-6.75,11.39-11.82,15.69-5.07,4.3-11.1,7.59-18.07,9.85-6.98,2.26-14.59,3.4-22.83,3.4-5.62,0-10.92-.52-15.9-1.56-4.98-1.04-9.42-2.29-13.32-3.74-3.9-1.45-7.18-2.92-9.85-4.42-2.67-1.49-4.51-2.76-5.5-3.8-1-1.04-1.72-2.26-2.17-3.67-.45-1.4-.68-3.15-.68-5.23,0-1.54,.09-2.81,.27-3.8,.18-1,.43-1.81,.75-2.45,.32-.63,.72-1.06,1.22-1.29,.5-.22,1.02-.34,1.56-.34,1.27,0,3.06,.79,5.37,2.38,2.31,1.59,5.3,3.31,8.97,5.16,3.67,1.86,8.06,3.58,13.18,5.16,5.12,1.59,11.07,2.38,17.87,2.38,5.52,0,10.6-.75,15.22-2.24,4.62-1.49,8.61-3.65,11.96-6.45,3.35-2.81,5.95-6.27,7.81-10.4,1.85-4.12,2.79-8.81,2.79-14.06s-1.18-10.1-3.53-14c-2.36-3.89-5.46-7.31-9.31-10.26-3.85-2.94-8.22-5.62-13.11-8.02-4.89-2.4-9.9-4.8-15.01-7.2-5.12-2.4-10.12-5-15.01-7.81-4.89-2.81-9.26-6.09-13.11-9.85-3.85-3.76-6.95-8.17-9.31-13.25-2.36-5.07-3.53-11.1-3.53-18.07s1.22-12.89,3.67-18.28c2.45-5.39,5.89-9.96,10.33-13.72,4.44-3.76,9.76-6.63,15.97-8.63,6.2-1.99,13.02-2.99,20.45-2.99,3.71,0,7.47,.36,11.28,1.09,3.8,.73,7.41,1.65,10.8,2.79,3.4,1.13,6.43,2.4,9.1,3.8,2.67,1.41,4.44,2.54,5.3,3.4,.86,.86,1.4,1.49,1.63,1.9,.22,.41,.43,.93,.61,1.56,.18,.64,.32,1.38,.41,2.24,.09,.86,.14,1.93,.14,3.19,0,1.18-.07,2.24-.2,3.19-.14,.95-.34,1.77-.61,2.45s-.61,1.2-1.02,1.56c-.41,.36-.88,.54-1.43,.54-1,0-2.51-.66-4.55-1.97-2.04-1.31-4.6-2.79-7.68-4.42-3.08-1.63-6.75-3.1-11.01-4.42-4.26-1.31-9.1-1.97-14.54-1.97s-10.01,.73-14,2.17c-3.99,1.45-7.29,3.42-9.92,5.91-2.63,2.49-4.6,5.41-5.91,8.76-1.31,3.35-1.97,6.89-1.97,10.6,0,5.44,1.18,10.1,3.53,14,2.35,3.9,5.48,7.34,9.38,10.33,3.89,2.99,8.31,5.69,13.25,8.08,4.94,2.4,9.96,4.8,15.08,7.2,5.12,2.4,10.14,4.98,15.08,7.75,4.94,2.76,9.35,6.03,13.25,9.78,3.89,3.76,7.02,8.15,9.38,13.18,2.35,5.03,3.53,10.99,3.53,17.87Z"/>
    </g>
    <text class="cls-8" transform="translate(727.74 373.46)"><tspan x="0" y="0">Consul</tspan><tspan class="cls-7" x="206.61" y="0">t</tspan><tspan x="230.98" y="0">oría </tspan><tspan class="cls-1" x="367.31" y="0">E</tspan><tspan x="403.55" y="0">du</tspan><tspan class="cls-3" x="482.97" y="0">ca</tspan><tspan x="549.96" y="0">ti</tspan><tspan class="cls-1" x="591.35" y="0">v</tspan><tspan class="cls-4" x="623.85" y="0">a y A</tspan><tspan class="cls-3" x="771.16" y="0">c</tspan><tspan class="cls-4" x="802.92" y="0">adémi</tspan><tspan class="cls-3" x="993.7" y="0">c</tspan><tspan x="1025.46" y="0">a</tspan></text>
  </g>
  <line class="cls-9" x1="642.6" y1="10.79" x2="642.6" y2="482.62"/>
  <g>
    <path class="cls-5" d="M257.6,2.73c21.63-5.55,51.65-3.31,70.45,12.89,60.12,51.82,29.8,267.54-98.53,323.97-68.62,30.17-175.4,19.26-213.61-46.51-19.79-34.07-23.15-86.23,1.58-119.81,30.82-41.87,75.3-14.15,134.24-56.94C211.32,73.07,205.14,16.19,257.6,2.73Z"/>
    <path class="cls-6" d="M525.11,71.59c-32.09-37.94-129.72-1.31-152.13,7.09-126.64,47.5-192.33,150.9-213.38,187.98-31.85,56.07-67.4,118.68-40.5,168.91,28.96,54.08,110.63,57.15,127.77,57.72,80.68,2.7,175.08-42.84,186.02-104.84,7.97-45.16-35.92-56.16-30.74-104.05,8.56-79.16,134.24-102.85,133.21-179.72-.09-7.02-.49-21.57-10.25-33.11Z"/>
    <path class="cls-2" d="M356.67,85.46c1.6,20.65,1.78,51.15-6.43,86.47-6.6,28.39-27.88,119.8-110.28,162.6-47.87,24.86-95.76,22.62-122.64,18.75,16.08-43.91,34.98-77.63,49.68-100.7,21.71-34.05,62.57-96.63,139.23-142.19,20.35-12.1,38.28-20.05,50.44-24.93Z"/>
  </g>
</svg>