<?xml version="1.0" encoding="UTF-8"?>
<svg id="Layer_1" data-name="Layer 1" xmlns="http://www.w3.org/2000/svg" viewBox="0 0 1633.05 402.88">
  <defs>
    <style>
      .cls-1, .cls-2 {
        fill: #fff;
      }

      .cls-3 {
        letter-spacing: -.01em;
      }

      .cls-4 {
        fill: #0f6f93;
      }

      .cls-5 {
        letter-spacing: 0em;
      }

      .cls-6 {
        letter-spacing: 0em;
      }

      .cls-7 {
        fill: #11a9db;
      }

      .cls-8 {
        fill: #88db79;
      }

      .cls-9 {
        letter-spacing: -.01em;
      }

      .cls-10 {
        letter-spacing: 0em;
      }

      .cls-11 {
        letter-spacing: 0em;
      }

      .cls-2 {
        font-family: Calibri-Light, Calibri;
        font-size: 62.41px;
      }

      .cls-12 {
        fill: none;
        stroke: #0f6f93;
        stroke-linecap: round;
        stroke-miterlimit: 10;
        stroke-width: 7px;
      }
    </style>
  </defs>
  <g>
    <g>
      <path class="cls-4" d="M671.22,229.3c0,.96-.07,1.81-.22,2.55-.15,.74-.39,1.37-.72,1.89-.33,.52-.72,.91-1.17,1.17-.44,.26-.93,.39-1.44,.39h-67.24c-1.33,0-2.7-.5-4.11-1.5-1.41-1-2.11-2.83-2.11-5.49V98.71c0-2.66,.7-4.49,2.11-5.49,1.4-1,2.77-1.5,4.11-1.5h66.24c.52,0,1,.13,1.44,.39,.44,.26,.81,.65,1.11,1.17,.29,.52,.52,1.17,.67,1.94,.15,.78,.22,1.68,.22,2.72,0,.96-.07,1.81-.22,2.55-.15,.74-.37,1.35-.67,1.83-.3,.48-.67,.85-1.11,1.11-.44,.26-.93,.39-1.44,.39h-58.92v50.48h50.82c.59,0,1.11,.13,1.55,.39,.44,.26,.81,.63,1.11,1.11,.29,.48,.52,1.11,.67,1.89,.15,.78,.22,1.68,.22,2.72,0,.96-.07,1.79-.22,2.5-.15,.7-.37,1.28-.67,1.72-.3,.44-.67,.78-1.11,1-.44,.22-.96,.33-1.55,.33h-50.82v57.25h59.91c.52,0,1,.13,1.44,.39,.44,.26,.83,.63,1.17,1.11,.33,.48,.57,1.11,.72,1.89,.15,.78,.22,1.68,.22,2.72Z"/>
      <path class="cls-4" d="M768.46,233.07c0,.52-.09,.96-.28,1.33-.19,.37-.52,.67-1,.89-.48,.22-1.09,.39-1.83,.5-.74,.11-1.66,.17-2.77,.17-1.18,0-2.16-.06-2.94-.17-.78-.11-1.41-.28-1.89-.5-.48-.22-.85-.52-1.11-.89-.26-.37-.39-.81-.39-1.33v-14.42c-5.33,5.77-10.84,10.3-16.53,13.59-5.7,3.29-11.91,4.94-18.64,4.94-7.25,0-13.42-1.41-18.53-4.22-5.1-2.81-9.26-6.62-12.48-11.43-3.22-4.81-5.57-10.45-7.05-16.92-1.48-6.47-2.22-13.33-2.22-20.58,0-8.51,.92-16.18,2.77-23.02,1.85-6.84,4.59-12.67,8.21-17.48,3.62-4.81,8.1-8.5,13.43-11.1,5.33-2.59,11.5-3.88,18.53-3.88,6.06,0,11.61,1.35,16.64,4.05,5.03,2.7,9.99,6.68,14.87,11.93v-60.47c0-.44,.09-.85,.28-1.22,.18-.37,.54-.67,1.05-.89,.52-.22,1.2-.41,2.05-.56,.85-.15,1.9-.22,3.16-.22,1.33,0,2.42,.07,3.27,.22,.85,.15,1.52,.33,2,.56,.48,.22,.83,.52,1.05,.89,.22,.37,.33,.78,.33,1.22V233.07Zm-13.2-72.45c-5.55-6.73-10.89-11.87-16.03-15.42-5.14-3.55-10.52-5.33-16.14-5.33-5.1,0-9.47,1.22-13.09,3.66-3.62,2.44-6.58,5.66-8.88,9.65-2.29,3.99-3.96,8.51-4.99,13.54-1.04,5.03-1.55,10.13-1.55,15.31,0,5.55,.44,10.95,1.33,16.2,.89,5.25,2.4,9.93,4.55,14.04,2.14,4.11,4.99,7.4,8.54,9.87,3.55,2.48,7.99,3.72,13.31,3.72,2.66,0,5.25-.37,7.77-1.11,2.51-.74,5.1-1.96,7.77-3.66,2.66-1.7,5.42-3.9,8.27-6.6,2.85-2.7,5.9-6.05,9.15-10.04v-43.83Z"/>
      <path class="cls-4" d="M874.47,233.07c0,.44-.09,.85-.28,1.22-.19,.37-.54,.67-1.05,.89-.52,.22-1.18,.41-2,.55-.81,.15-1.81,.22-3,.22-1.33,0-2.4-.07-3.22-.22-.81-.15-1.44-.33-1.89-.55s-.76-.52-.94-.89c-.19-.37-.28-.78-.28-1.22v-14.2c-5.77,6.44-11.41,11.1-16.92,13.98-5.51,2.88-11,4.33-16.48,4.33-6.58,0-12.13-1.11-16.64-3.33-4.51-2.22-8.15-5.23-10.93-9.04-2.77-3.81-4.77-8.23-5.99-13.26-1.22-5.03-1.83-11.1-1.83-18.2v-60.69c0-.44,.09-.85,.28-1.22,.18-.37,.54-.68,1.05-.94,.52-.26,1.2-.44,2.05-.55,.85-.11,1.9-.17,3.16-.17,1.33,0,2.42,.06,3.27,.17,.85,.11,1.52,.3,2,.55,.48,.26,.83,.57,1.05,.94,.22,.37,.33,.78,.33,1.22v59.47c0,6.21,.48,11.28,1.44,15.2,.96,3.92,2.4,7.27,4.33,10.04,1.92,2.77,4.38,4.92,7.38,6.44,3,1.52,6.49,2.27,10.48,2.27,5.1,0,10.19-1.81,15.26-5.44,5.07-3.62,10.45-8.95,16.14-15.98v-72.01c0-.44,.09-.85,.28-1.22,.18-.37,.54-.68,1.05-.94,.52-.26,1.2-.44,2.05-.55,.85-.11,1.94-.17,3.27-.17,1.26,0,2.31,.06,3.16,.17,.85,.11,1.51,.3,2,.55,.48,.26,.83,.57,1.05,.94,.22,.37,.33,.78,.33,1.22v100.41Z"/>
      <path class="cls-1" d="M984.58,132.88c0,6.66-1.13,12.76-3.38,18.31-2.26,5.55-5.49,10.32-9.71,14.31-4.22,3.99-9.36,7.1-15.42,9.32-6.07,2.22-13.39,3.33-21.97,3.33h-18.64v54.92c0,.44-.11,.85-.33,1.22-.22,.37-.59,.67-1.11,.89-.52,.22-1.2,.41-2.05,.55-.85,.15-1.94,.22-3.27,.22-1.26,0-2.33-.07-3.22-.22-.89-.15-1.59-.33-2.11-.55-.52-.22-.89-.52-1.11-.89-.22-.37-.33-.78-.33-1.22V98.71c0-2.66,.7-4.49,2.11-5.49,1.4-1,2.77-1.5,4.1-1.5h29.18c2.88,0,5.7,.13,8.43,.39,2.74,.26,5.94,.81,9.6,1.66,3.66,.85,7.4,2.44,11.21,4.77,3.81,2.33,7.05,5.18,9.71,8.54,2.66,3.37,4.71,7.21,6.16,11.54,1.44,4.33,2.16,9.08,2.16,14.26Zm-14.31,1.22c0-6.21-1.22-11.48-3.66-15.81-2.44-4.33-5.42-7.54-8.93-9.65-3.51-2.11-7.17-3.44-10.98-3.99-3.81-.55-7.42-.83-10.82-.83h-20.42v62.35h19.53c6.29,0,11.54-.79,15.75-2.39,4.22-1.59,7.77-3.79,10.65-6.6,2.88-2.81,5.08-6.19,6.6-10.15,1.52-3.96,2.27-8.27,2.27-12.93Z"/>
      <path class="cls-1" d="M1083.14,232.85c0,.52-.09,.96-.28,1.33-.18,.37-.54,.68-1.05,.94-.52,.26-1.24,.46-2.16,.61-.93,.15-2.09,.22-3.5,.22-1.26,0-2.31-.06-3.16-.17-.85-.11-1.57-.33-2.16-.67-.59-.33-1.07-.78-1.44-1.33-.37-.55-.7-1.28-1-2.16l-13.42-34.84c-1.55-3.92-3.22-7.62-4.99-11.1-1.78-3.48-3.92-6.49-6.44-9.04-2.52-2.55-5.55-4.57-9.1-6.05-3.55-1.48-7.8-2.22-12.76-2.22h-14.87v64.68c0,.44-.11,.85-.33,1.22-.22,.37-.59,.67-1.11,.89-.52,.22-1.2,.41-2.05,.55-.85,.15-1.94,.22-3.27,.22-1.26,0-2.33-.07-3.22-.22-.89-.15-1.59-.33-2.11-.55-.52-.22-.89-.52-1.11-.89-.22-.37-.33-.78-.33-1.22V98.71c0-2.66,.7-4.49,2.11-5.49,1.4-1,2.77-1.5,4.1-1.5h26.96c3.55,0,6.49,.09,8.82,.28,2.33,.19,4.46,.43,6.38,.72,5.47,.96,10.24,2.52,14.31,4.66,4.07,2.15,7.43,4.79,10.1,7.93,2.66,3.15,4.64,6.7,5.94,10.65,1.29,3.96,1.94,8.23,1.94,12.81s-.67,8.97-2,12.7c-1.33,3.74-3.22,7.03-5.66,9.87-2.44,2.85-5.36,5.31-8.76,7.38-3.4,2.07-7.14,3.81-11.21,5.21,2.44,1.11,4.64,2.48,6.6,4.11,1.96,1.63,3.77,3.59,5.44,5.88,1.66,2.29,3.23,4.94,4.71,7.93,1.48,3,2.96,6.34,4.44,10.04l13.42,33.51c.96,2.59,1.57,4.37,1.83,5.33,.26,.96,.39,1.66,.39,2.11Zm-23.86-102.63c0-6.14-1.37-11.33-4.1-15.59-2.74-4.25-7.32-7.3-13.76-9.15-2.15-.59-4.48-1.02-6.99-1.28-2.52-.26-5.81-.39-9.88-.39h-17.75v52.7h20.64c5.55,0,10.32-.68,14.31-2.05,4-1.37,7.3-3.23,9.93-5.6,2.62-2.37,4.55-5.14,5.77-8.32,1.22-3.18,1.83-6.62,1.83-10.32Z"/>
      <path class="cls-1" d="M1205.45,161.84c0,11.47-1.31,21.84-3.94,31.12-2.63,9.28-6.57,17.2-11.82,23.74-5.25,6.55-11.87,11.59-19.86,15.15s-17.31,5.33-27.96,5.33-19.8-1.68-27.46-5.05-13.94-8.17-18.86-14.42c-4.92-6.25-8.54-13.89-10.87-22.91-2.33-9.02-3.49-19.19-3.49-30.51s1.29-21.45,3.88-30.62c2.59-9.17,6.53-16.99,11.82-23.47,5.29-6.47,11.91-11.48,19.86-15.03,7.95-3.55,17.29-5.33,28.01-5.33s19.45,1.66,27.07,4.99c7.62,3.33,13.92,8.1,18.92,14.31,4.99,6.21,8.69,13.76,11.09,22.63,2.4,8.88,3.61,18.9,3.61,30.07Zm-14.42,1.22c0-8.5-.8-16.48-2.39-23.91-1.59-7.43-4.22-13.91-7.88-19.42-3.66-5.51-8.53-9.84-14.59-12.98-6.07-3.14-13.57-4.72-22.52-4.72s-16.37,1.65-22.47,4.94c-6.1,3.29-11.06,7.71-14.87,13.26-3.81,5.55-6.55,12.02-8.21,19.42-1.67,7.4-2.5,15.2-2.5,23.41,0,8.73,.76,16.85,2.27,24.35,1.52,7.51,4.09,14.04,7.71,19.58,3.62,5.55,8.47,9.89,14.53,13.04,6.06,3.15,13.65,4.72,22.75,4.72s16.6-1.68,22.75-5.05c6.14-3.36,11.09-7.88,14.87-13.54,3.77-5.66,6.47-12.21,8.1-19.64,1.63-7.43,2.44-15.26,2.44-23.47Z"/>
      <path class="cls-1" d="M1225.17,200.05c.31-3.98,.63-7.96,.94-11.93V93.65c0-.4,.11-.76,.33-1.1,.22-.33,.59-.6,1.11-.8,.52-.2,1.22-.37,2.11-.5,.89-.13,1.96-.2,3.22-.2s2.33,.07,3.22,.2c.89,.13,1.59,.3,2.11,.5,.52,.2,.89,.47,1.11,.8,.22,.33,.33,.7,.33,1.1v96.46c-.46,4.39-.92,8.79-1.39,13.18-.82,7.75-3.61,13.5-4.32,15.22-6.29,15.24-28.54,27.12-33.43,29.6-.39,.2-.82,.31-1.26,.29-2.53-.12-4.82-1.36-6-3.31-1.05-1.74-.88-3.48-.59-4.56,.16-.62,.6-1.15,1.22-1.46,5.17-2.59,20.39-10.95,26.71-24.23,1.33-2.8,4.05-8.13,4.57-14.79Z"/>
      <path class="cls-1" d="M1336.21,229.3c0,.96-.07,1.81-.22,2.55-.15,.74-.39,1.37-.72,1.89-.33,.52-.72,.91-1.17,1.17-.44,.26-.93,.39-1.44,.39h-67.24c-1.33,0-2.7-.5-4.1-1.5-1.41-1-2.11-2.83-2.11-5.49V98.71c0-2.66,.7-4.49,2.11-5.49,1.4-1,2.77-1.5,4.1-1.5h66.24c.52,0,1,.13,1.44,.39,.44,.26,.81,.65,1.11,1.17,.29,.52,.52,1.17,.67,1.94,.15,.78,.22,1.68,.22,2.72,0,.96-.07,1.81-.22,2.55-.15,.74-.37,1.35-.67,1.83-.3,.48-.67,.85-1.11,1.11-.44,.26-.93,.39-1.44,.39h-58.92v50.48h50.82c.59,0,1.11,.13,1.55,.39,.44,.26,.81,.63,1.11,1.11,.29,.48,.52,1.11,.67,1.89,.15,.78,.22,1.68,.22,2.72,0,.96-.07,1.79-.22,2.5-.15,.7-.37,1.28-.67,1.72-.3,.44-.67,.78-1.11,1-.44,.22-.96,.33-1.55,.33h-50.82v57.25h59.91c.52,0,1,.13,1.44,.39,.44,.26,.83,.63,1.17,1.11,.33,.48,.57,1.11,.72,1.89,.15,.78,.22,1.68,.22,2.72Z"/>
      <path class="cls-1" d="M1442.99,215.76c0,.81-.04,1.55-.11,2.22-.08,.67-.19,1.26-.33,1.78-.15,.52-.35,1-.61,1.44-.26,.44-.74,1.02-1.44,1.72s-2.24,1.85-4.6,3.44c-2.37,1.59-5.34,3.16-8.93,4.72-3.59,1.55-7.71,2.88-12.37,3.99-4.66,1.11-9.8,1.66-15.42,1.66-9.03,0-17.2-1.57-24.52-4.72-7.32-3.14-13.56-7.75-18.7-13.81-5.14-6.06-9.1-13.54-11.87-22.41-2.77-8.88-4.16-19.01-4.16-30.4s1.48-22.17,4.44-31.45c2.96-9.28,7.12-17.16,12.48-23.63,5.36-6.47,11.8-11.43,19.31-14.87,7.51-3.44,15.81-5.16,24.91-5.16,4.29,0,8.45,.41,12.48,1.22,4.03,.81,7.75,1.85,11.15,3.11,3.4,1.26,6.45,2.7,9.15,4.33,2.7,1.63,4.55,2.94,5.55,3.94,1,1,1.63,1.72,1.89,2.16,.26,.44,.46,.94,.61,1.5,.15,.55,.26,1.18,.33,1.89,.07,.7,.11,1.5,.11,2.39,0,1.04-.06,1.94-.17,2.72-.11,.78-.3,1.44-.55,2-.26,.55-.57,.98-.94,1.28-.37,.3-.81,.44-1.33,.44-1.04,0-2.5-.76-4.38-2.27-1.89-1.52-4.37-3.2-7.43-5.05-3.07-1.85-6.82-3.53-11.26-5.05-4.44-1.52-9.73-2.27-15.87-2.27-6.73,0-12.91,1.35-18.53,4.05-5.62,2.7-10.45,6.68-14.48,11.93-4.03,5.25-7.17,11.72-9.43,19.42-2.26,7.69-3.38,16.53-3.38,26.52s1.04,18.01,3.11,25.41c2.07,7.4,5.07,13.63,8.99,18.7,3.92,5.07,8.76,8.93,14.53,11.59,5.77,2.66,12.32,3.99,19.64,3.99,5.99,0,11.22-.76,15.7-2.27,4.47-1.52,8.3-3.2,11.48-5.05,3.18-1.85,5.79-3.53,7.82-5.05,2.03-1.52,3.61-2.27,4.72-2.27,.44,0,.81,.09,1.11,.28,.29,.19,.54,.52,.72,1,.18,.48,.33,1.13,.44,1.94,.11,.81,.17,1.81,.17,3Z"/>
      <path class="cls-1" d="M1550.67,97.93c0,.96-.08,1.81-.22,2.55-.15,.74-.37,1.35-.67,1.83-.3,.48-.67,.85-1.11,1.11-.44,.26-.92,.39-1.44,.39h-42.83V233.07c0,.44-.11,.85-.33,1.22-.22,.37-.59,.67-1.11,.89-.52,.22-1.22,.41-2.11,.55-.89,.15-1.96,.22-3.22,.22s-2.33-.07-3.22-.22c-.89-.15-1.59-.33-2.11-.55-.52-.22-.89-.52-1.11-.89-.22-.37-.33-.78-.33-1.22V103.81h-42.83c-.59,0-1.09-.13-1.5-.39-.41-.26-.76-.63-1.05-1.11-.3-.48-.52-1.09-.67-1.83-.15-.74-.22-1.59-.22-2.55,0-1.03,.07-1.94,.22-2.72,.15-.78,.37-1.42,.67-1.94,.29-.52,.65-.9,1.05-1.17,.41-.26,.9-.39,1.5-.39h99.19c.52,0,1,.13,1.44,.39,.44,.26,.81,.65,1.11,1.17,.29,.52,.52,1.17,.67,1.94,.15,.78,.22,1.68,.22,2.72Z"/>
      <path class="cls-1" d="M1633.05,196.46c0,6.36-1.15,12.06-3.44,17.09-2.29,5.03-5.51,9.3-9.65,12.81-4.14,3.51-9.06,6.2-14.76,8.04-5.7,1.85-11.91,2.77-18.64,2.77-4.59,0-8.91-.43-12.98-1.28-4.07-.85-7.69-1.87-10.87-3.05-3.18-1.18-5.86-2.39-8.04-3.61-2.18-1.22-3.68-2.26-4.49-3.11-.82-.85-1.41-1.85-1.78-3-.37-1.15-.55-2.57-.55-4.27,0-1.26,.07-2.29,.22-3.11,.15-.81,.35-1.48,.61-2,.26-.52,.59-.87,1-1.05,.41-.18,.83-.28,1.28-.28,1.04,0,2.5,.65,4.38,1.94,1.89,1.3,4.33,2.7,7.32,4.22,3,1.52,6.58,2.92,10.76,4.22,4.18,1.29,9.04,1.94,14.59,1.94,4.51,0,8.65-.61,12.43-1.83,3.77-1.22,7.03-2.98,9.76-5.27,2.74-2.29,4.86-5.12,6.38-8.49,1.51-3.37,2.27-7.19,2.27-11.48s-.96-8.25-2.88-11.43c-1.92-3.18-4.46-5.97-7.6-8.38-3.14-2.4-6.71-4.59-10.71-6.55-3.99-1.96-8.08-3.92-12.26-5.88-4.18-1.96-8.27-4.09-12.26-6.38-3.99-2.29-7.56-4.97-10.71-8.04-3.14-3.07-5.68-6.67-7.6-10.82-1.92-4.14-2.88-9.06-2.88-14.76s1-10.52,3-14.92c2-4.4,4.81-8.14,8.43-11.21,3.62-3.07,7.97-5.42,13.04-7.05,5.07-1.63,10.63-2.44,16.7-2.44,3.03,0,6.1,.3,9.21,.89,3.11,.59,6.05,1.35,8.82,2.27,2.77,.93,5.25,1.96,7.43,3.11,2.18,1.15,3.62,2.07,4.33,2.77,.7,.7,1.15,1.22,1.33,1.55,.18,.33,.35,.76,.5,1.28,.15,.52,.26,1.13,.33,1.83,.07,.7,.11,1.57,.11,2.61,0,.96-.06,1.83-.17,2.61-.11,.78-.28,1.44-.5,2s-.5,.98-.83,1.28c-.33,.3-.72,.44-1.17,.44-.81,0-2.05-.54-3.72-1.61-1.66-1.07-3.75-2.27-6.27-3.61-2.52-1.33-5.51-2.53-8.99-3.61-3.48-1.07-7.43-1.61-11.87-1.61s-8.17,.59-11.43,1.78c-3.26,1.18-5.96,2.79-8.1,4.83-2.15,2.04-3.75,4.42-4.83,7.16-1.07,2.74-1.61,5.62-1.61,8.65,0,4.44,.96,8.25,2.88,11.43,1.92,3.18,4.47,5.99,7.66,8.43,3.18,2.44,6.79,4.64,10.82,6.6,4.03,1.96,8.14,3.92,12.32,5.88,4.18,1.96,8.28,4.07,12.32,6.32,4.03,2.26,7.64,4.92,10.82,7.99,3.18,3.07,5.73,6.66,7.66,10.76,1.92,4.1,2.88,8.97,2.88,14.59Z"/>
    </g>
    <text class="cls-2" transform="translate(594.22 304.94)"><tspan x="0" y="0">Consul</tspan><tspan class="cls-10" x="168.7" y="0">t</tspan><tspan x="188.6" y="0">oría </tspan><tspan class="cls-3" x="299.92" y="0">E</tspan><tspan class="cls-6" x="329.51" y="0">du</tspan><tspan class="cls-5" x="394.35" y="0">ca</tspan><tspan class="cls-11" x="449.05" y="0">ti</tspan><tspan class="cls-9" x="482.85" y="0">v</tspan><tspan x="509.39" y="0">a y A</tspan><tspan class="cls-10" x="629.67" y="0">c</tspan><tspan x="655.6" y="0">adémi</tspan><tspan class="cls-5" x="811.38" y="0">c</tspan><tspan x="837.31" y="0">a</tspan></text>
  </g>
  <line class="cls-12" x1="524.69" y1="8.81" x2="524.69" y2="394.07"/>
  <g>
    <path class="cls-7" d="M210.34,2.23c17.66-4.53,42.18-2.7,57.52,10.52,49.09,42.31,24.33,218.45-80.45,264.53-56.03,24.63-143.22,15.73-174.42-37.97-16.16-27.82-18.9-70.41,1.29-97.83,25.16-34.19,61.49-11.56,109.61-46.49C172.55,59.66,167.5,13.22,210.34,2.23Z"/>
    <path class="cls-8" d="M428.77,58.45c-26.2-30.98-105.92-1.07-124.22,5.79-103.4,38.78-157.04,123.22-174.23,153.49-26,45.78-55.04,96.9-33.07,137.92,23.65,44.16,90.33,46.67,104.33,47.13,65.88,2.2,142.96-34.98,151.89-85.6,6.51-36.88-29.33-45.86-25.1-84.96,6.99-64.64,109.61-83.98,108.77-146.74-.08-5.73-.4-17.61-8.37-27.03Z"/>
    <path class="cls-4" d="M291.23,69.78c1.3,16.86,1.46,41.76-5.25,70.61-5.39,23.18-22.76,97.82-90.04,132.77-39.08,20.3-78.19,18.47-100.14,15.31,13.13-35.86,28.56-63.39,40.57-82.22,17.73-27.81,51.09-78.9,113.68-116.1,16.62-9.88,31.25-16.37,41.18-20.36Z"/>
  </g>
</svg>